<?xml version="1.0" encoding="UTF-8"?>
<svg width="368px" height="481px" viewBox="0 0 368 481" version="1.1" xmlns="http://www.w3.org/2000/svg" xmlns:xlink="http://www.w3.org/1999/xlink">
    <!-- Generator: Sketch 53 (72520) - https://sketchapp.com -->
    <title>Artboard</title>
    <desc>Created with Sketch.</desc>
    <g id="Page-1" stroke="none" stroke-width="1" fill="none" fill-rule="evenodd">
        <g id="Artboard" transform="translate(-373.000000, -302.000000)" fill-rule="nonzero">
            <path d="M459.983936,496.153183 L523.205633,471.984189 C553.78476,460.294108 590.453611,464.109289 615.969622,481.635743 L654.35221,508 L459.983936,577.779547 L459.983936,744.559483 C459.983936,765.952775 440.511919,783.295464 416.491968,783.295464 C392.472017,783.295464 373,765.952775 373,744.559483 L373,403.735981 C373,382.342689 392.472017,365 416.491968,365 C440.511919,365 459.983936,382.342689 459.983936,403.735981 L459.983936,496.153183 Z" id="Combined-Shape-Copy" fill="#8DE2BF"></path>
            <path d="M654.368273,589.142281 L591.146577,613.311275 C560.56745,625.001355 523.898598,621.186175 498.382588,603.659721 L460,577.295464 L654.368273,507.515917 L654.368273,340.735981 C654.368273,319.342689 673.840291,302 697.860241,302 C721.880192,302 741.35221,319.342689 741.35221,340.735981 L741.35221,681.559483 C741.35221,702.952775 721.880192,720.295464 697.860241,720.295464 C673.840291,720.295464 654.368273,702.952775 654.368273,681.559483 L654.368273,589.142281 Z" id="Combined-Shape-Copy-2" fill="#4BB789"></path>
        </g>
    </g>
</svg>