<?xml version="1.0" encoding="UTF-8" standalone="no"?>
<svg xmlns:dc="http://purl.org/dc/elements/1.1/" xmlns:cc="http://creativecommons.org/ns#" xmlns:rdf="http://www.w3.org/1999/02/22-rdf-syntax-ns#" xmlns:svg="http://www.w3.org/2000/svg" xmlns="http://www.w3.org/2000/svg" xmlns:sodipodi="http://sodipodi.sourceforge.net/DTD/sodipodi-0.dtd" xmlns:inkscape="http://www.inkscape.org/namespaces/inkscape" width="85mm" height="68mm" viewBox="-29 -39 85 68" version="1.1" id="svg6" sodipodi:docname="logo.svg" inkscape:version="0.92.4 (5da689c313, 2019-01-14)">
  <metadata id="metadata12">
    <rdf:RDF>
      <cc:Work rdf:about="">
        <dc:format>image/svg+xml</dc:format>
        <dc:type rdf:resource="http://purl.org/dc/dcmitype/StillImage"/>
        <dc:title>nixbuild.net</dc:title>
      </cc:Work>
    </rdf:RDF>
  </metadata>
  <defs id="defs10"/>
  <sodipodi:namedview pagecolor="#ffffff" bordercolor="#666666" borderopacity="1" objecttolerance="10" gridtolerance="10" guidetolerance="10" inkscape:pageopacity="0" inkscape:pageshadow="2" inkscape:window-width="2291" inkscape:window-height="2050" id="namedview8" showgrid="false" inkscape:pagecheckerboard="true" inkscape:zoom="0.9182598" inkscape:cx="-63.70746" inkscape:cy="128.50394" inkscape:window-x="20" inkscape:window-y="62" inkscape:window-maximized="0" inkscape:current-layer="svg6"/>
  <title id="title2">nixbuild.net</title>
  <path d=" M 33.2081,-7.07635 L 36.271,-10.8077 L 41.691,-10.8123 L 44.7601,-7.08607 L 45.5007,-6.88843 L 49.2536,-9.06023  L 49.4512,-9.80081 L 47.7496,-14.3184 L 50.4541,-19.0155 L 55.2154,-19.8119 L 55.7566,-20.3546 L 55.7508,-24.6906  L 55.2081,-25.2319 L 50.4446,-26.0155 L 47.7275,-30.7052 L 49.4169,-35.2274 L 49.2173,-35.9674 L 45.4586,-38.1291  L 44.7185,-37.9294 L 41.6595,-34.195 L 36.2644,-34.185 L 36.2631,-34.1904 L 33.1978,-37.9198 L 32.4574,-38.1181  L 28.7023,-35.9501 L 28.5039,-35.2098 L 30.2009,-30.6904 L 27.4917,-25.9961 L 22.7296,-25.2045 L 22.1878,-24.6623  L 22.1893,-20.3263 L 22.7315,-19.7845 L 27.4941,-18.9961 L 30.2065,-14.3037 L 28.5125,-9.78319 L 28.7114,-9.04294  L 32.4679,-6.87747 z M 32.2161,-18.6 L 32.2161,-26.4 L 38.9711,-30.3 L 45.7261,-26.4 L 45.7261,-18.6 L 38.9711,-14.7  z M 2.49847,28.3917 L 3.49678,22.7326 L 8.33144,21.438 L 12.0242,25.8408 L 12.7078,26.0241 L 16.1757,24.0227  L 16.359,23.3391 L 14.3942,17.9389 L 17.9339,14.4005 L 23.3333,16.3673 L 24.017,16.1842 L 26.0196,12.717  L 25.8366,12.0333 L 21.435,8.339 L 22.7314,3.50481 L 28.3908,2.5085 L 28.8914,2.00812 L 28.8922,-1.99586  L 28.3918,-2.49646 L 22.7328,-3.49518 L 21.4386,-8.32993 L 25.8417,-12.0223 L 26.025,-12.706 L 24.0238,-16.174  L 23.3402,-16.3574 L 17.94,-14.3929 L 14.4018,-17.9329 L 16.3689,-23.3321 L 16.1859,-24.0158 L 12.7189,-26.0187  L 12.0351,-25.8357 L 8.34052,-21.4344 L 3.49986,-22.7329 L 2.50249,-28.3913 L 2.002,-28.8918 L -2.002,-28.8918  L -2.50249,-28.3913 L -3.5,-22.7321 L -8.33446,-21.4368 L -12.0278,-25.8391 L -12.7115,-26.0223 L -16.1791,-24.0204  L -16.3623,-23.3367 L -14.3967,-17.9369 L -17.9359,-14.398 L -23.3356,-16.364 L -24.0193,-16.1808 L -26.0214,-12.7133  L -25.8383,-12.0296 L -21.4362,-8.33597 L -22.7319,-3.5016 L -28.3911,-2.50449 L -28.8917,-2.00403 L -28.892,1.99995  L -28.3915,2.50047 L -22.7324,3.49838 L -21.4374,8.33295 L -25.84,12.026 L -26.0232,12.7097 L -24.0216,16.1774  L -23.3379,16.3607 L -17.9379,14.3954 L -14.3993,17.9349 L -16.3656,23.3344 L -16.1825,24.0181 L -12.7152,26.0205  L -12.0315,25.8374 L -8.33749,21.4356 L -3.5032,22.7316 L -2.50648,28.3909 L -2.00607,28.8915 L 1.99791,28.8921  z M -7.47499,12.9471 L -14.95,-0 L -7.47499,-12.9471 L 7.47499,-12.9471 L 14.95,-0 L 7.47499,12.9471  z " id="path4" style="stroke:none;fill:#ffffff;fill-opacity:1"/>
</svg>