<?xml version="1.0" encoding="UTF-8" standalone="no"?>
<svg
   xmlns:dc="http://purl.org/dc/elements/1.1/"
   xmlns:cc="http://creativecommons.org/ns#"
   xmlns:rdf="http://www.w3.org/1999/02/22-rdf-syntax-ns#"
   xmlns:svg="http://www.w3.org/2000/svg"
   xmlns="http://www.w3.org/2000/svg"
   xmlns:sodipodi="http://sodipodi.sourceforge.net/DTD/sodipodi-0.dtd"
   xmlns:inkscape="http://www.inkscape.org/namespaces/inkscape"
   viewBox="3.55 5.03 174.61 152.75"
   version="1.1"
   id="svg33"
   sodipodi:docname="logo4.svg"
   inkscape:version="1.0.2 (e86c870879, 2021-01-15)">
  <metadata
     id="metadata39">
    <rdf:RDF>
      <cc:Work
         rdf:about="">
        <dc:format>image/svg+xml</dc:format>
        <dc:type
           rdf:resource="http://purl.org/dc/dcmitype/StillImage" />
      </cc:Work>
    </rdf:RDF>
  </metadata>
  <defs
     id="defs37" />
  <sodipodi:namedview
     pagecolor="#ffffff"
     bordercolor="#666666"
     borderopacity="1"
     objecttolerance="10"
     gridtolerance="10"
     guidetolerance="10"
     inkscape:pageopacity="0"
     inkscape:pageshadow="2"
     inkscape:window-width="1366"
     inkscape:window-height="768"
     id="namedview35"
     showgrid="false"
     inkscape:zoom="3.5437905"
     inkscape:cx="74.333968"
     inkscape:cy="81.410004"
     inkscape:window-x="0"
     inkscape:window-y="0"
     inkscape:window-maximized="0"
     inkscape:current-layer="svg33"
     inkscape:document-rotation="0" />
  <polygon
     points="62.92,62.1 100.79,62.1 114.1,41.63 76.23,41.63 "
     style="fill:#504945;fill-opacity:1"
     id="polygon2" />
  <polygon
     points="19.93,62.1 57.8,62.1 71.11,41.63 33.24,41.63 "
     style="fill:#458588;fill-opacity:1"
     id="polygon4" />
  <polygon
     points="3.55,86.66 41.43,86.66 54.73,66.19 16.86,66.19 "
     style="fill:#504945;fill-opacity:1"
     id="polygon6" />
  <polygon
     points="87.69,121.64 66.78,90.06 42.37,90.27 63.28,121.85 "
     style="fill:#504945;fill-opacity:1"
     id="polygon8" />
  <polygon
     points="111.43,157.48 90.52,125.91 66.1,126.11 87.02,157.69 "
     style="fill:#458588;fill-opacity:1"
     id="polygon10" />
  <polygon
     points="140.96,157.57 120.05,126 95.63,126.2 116.54,157.78 "
     style="fill:#504945;fill-opacity:1"
     id="polygon12" />
  <polygon
     points="127.92,72.27 111.32,103.5 122.17,124.44 138.77,93.2 "
     style="fill:#504945;fill-opacity:1"
     id="polygon14" />
  <polygon
     points="146.77,36.81 130.17,68.05 141.02,88.98 157.62,57.75 "
     style="fill:#458588;fill-opacity:1"
     id="polygon16" />
  <polygon
     points="133.93,11.35 117.33,42.58 128.18,63.52 144.78,32.29 "
     style="fill:#504945;fill-opacity:1"
     id="polygon18" />
  <polygon
     points="126.59,125.56 160.16,125.56 170.89,105.09 137.33,105.09 "
     style="fill:#458588;fill-opacity:1"
     id="polygon20" />
  <polygon
     points="38.09,91.89 18.64,121.59 32.8,142.6 52.24,112.9 "
     style="fill:#458588;fill-opacity:1"
     id="polygon22" />
  <polygon
     points="113.5,36.99 92.77,5.29 68.35,5.36 89.08,37.06 "
     style="fill:#458588;fill-opacity:1"
     id="polygon24" />
  <polygon
     points="45.73,15.65 59.55,36.8 83.97,36.73 63.24,5.03 52.61,5.06 "
     style="fill:#504945;fill-opacity:1"
     id="polygon26" />
  <polygon
     points="54.94,117.45 35.49,147.14 42.33,157.29 56.76,157.29 69.09,138.46 "
     style="fill:#504945;fill-opacity:1"
     id="polygon28" />
  <polygon
     points="139.8,101 173.36,101 178.16,91.84 172.44,80.52 150.53,80.52 "
     style="fill:#504945;fill-opacity:1"
     id="polygon30" />
</svg>
